# xmcd
#
# Track frame offsets:
#       183
#       13213
#       28350
#       38698
#       50813
#       67523
#       81803
#       100428
#       114888
#       127988
#       143313
#       158253
#       170588
#       184238
#
# Disc length: 2630 seconds
#
# Revision: 1
# Processed by: cddbd v1.4PL0 Copyright (c) Steve Scherf et al.
# Submitted via: MusiCat 1.1
#
DISCID=ab0a440e
DTITLE=Vari - Cocktail italiano vol. 1
DYEAR=1900
DGENRE=
TTITLE0=Io mi fermo qui'-Donatello
TTITLE1=Deborah-Fausto Leali
TTITLE2=Quando vedrai la mia ragazza-Little Tony
TTITLE3=Quanto e' bella lei-Gianni Nazzaro
TTITLE4=Te lo leggo negli occhi-Dino
TTITLE5=I tuoi occhi verdi-Franco Tozzi
TTITLE6=Se stasera sono qui'-Wilma Goich
TTITLE7=Cinque minuti e poi-Maurizio
TTITLE8=Il mondo e' grigio, il mondo e' blu-Nicola di Bari
TTITLE9=Eternita'-I Camaleonti
TTITLE10=Io che amo solo te-Franco Simone
TTITLE11=Da bambino-I Giganti
TTITLE12=L'immensita'-Don Backy
TTITLE13=Breve sogno-Fabio Concato
EXTD=0\n\n\n
EXTT0=
EXTT1=
EXTT2=
EXTT3=
EXTT4=
EXTT5=
EXTT6=
EXTT7=
EXTT8=
EXTT9=
EXTT10=
EXTT11=
EXTT12=
EXTT13=
PLAYORDER=
